<?xml version="1.0" encoding="UTF-8" standalone="no"?>
<!-- Created with Inkscape (http://www.inkscape.org/) -->

<svg width="1024" height="1024" viewBox="0 0 1024 1024" version="1.1" id="svg1" inkscape:version="1.4.2 (1:1.4.2+202505120737+ebf0e940d0)" sodipodi:docname="logo.svg" inkscape:export-filename="../../assets/images/icon.1024.png" inkscape:export-xdpi="96" inkscape:export-ydpi="96" xmlns:inkscape="http://www.inkscape.org/namespaces/inkscape" xmlns:sodipodi="http://sodipodi.sourceforge.net/DTD/sodipodi-0.dtd" xmlns:xlink="http://www.w3.org/1999/xlink" xmlns="http://www.w3.org/2000/svg" xmlns:svg="http://www.w3.org/2000/svg" xmlns:rdf="http://www.w3.org/1999/02/22-rdf-syntax-ns#" xmlns:cc="http://creativecommons.org/ns#" xmlns:dc="http://purl.org/dc/elements/1.1/">
  <title id="title5">Shisō no Senshi icon</title>
  <sodipodi:namedview id="namedview1" pagecolor="#505050" bordercolor="#ffffff" borderopacity="1" inkscape:showpageshadow="0" inkscape:pageopacity="0" inkscape:pagecheckerboard="1" inkscape:deskcolor="#505050" inkscape:document-units="px" showgrid="true" showguides="true" inkscape:zoom="0.7624" inkscape:cx="452.5" inkscape:cy="548.3" inkscape:window-width="1920" inkscape:window-height="1012" inkscape:window-x="0" inkscape:window-y="1080" inkscape:window-maximized="1" inkscape:current-layer="layer4">
    <sodipodi:guide position="0,1024" orientation="0,1024" id="guide1" inkscape:locked="false" />
    <sodipodi:guide position="1024,1024" orientation="1024,0" id="guide2" inkscape:locked="false" />
    <sodipodi:guide position="1024,0" orientation="0,-1024" id="guide3" inkscape:locked="false" />
    <sodipodi:guide position="0,0" orientation="-1024,0" id="guide4" inkscape:locked="false" />
    <inkscape:grid id="grid4" units="px" originx="0" originy="0" spacingx="1" spacingy="1" empcolor="#0099e5" empopacity="0.302" color="#0099e5" opacity="0.149" empspacing="8" enabled="true" visible="true" />
    <sodipodi:guide position="512,1093" orientation="1,0" id="guide5" inkscape:locked="false" />
    <sodipodi:guide position="506,512" orientation="0,-1" id="guide6" inkscape:locked="false" />
  </sodipodi:namedview>
  <defs id="defs1">
    <color-profile name="sRGB" xlink:href="file:///usr/share/color/icc/colord/sRGB.icc" id="color-profile1" />
    <color-profile name="Sceptre-T24" xlink:href="../../../../../.local/share/icc/edid-436ffd41eec0e5dbd8c5e20f9a696595.icc" id="color-profile2" />
  </defs>
  <g inkscape:groupmode="layer" id="layer3" inkscape:label="BgDark" style="display:none">
    <rect style="fill:#000000;fill-opacity:1;stroke:none;stroke-width:4;stroke-linejoin:round;stroke-dasharray:none" id="rect4" width="1024" height="1024" x="0" y="0" />
  </g>
  <g inkscape:groupmode="layer" id="layer4" inkscape:label="BGLight" style="display:none">
    <rect style="fill:#ffffff;fill-opacity:1;stroke:none;stroke-width:4;stroke-linejoin:round;stroke-dasharray:none" id="rect5" width="1024" height="1024" x="0" y="0" />
  </g>
  <g inkscape:label="LED" inkscape:groupmode="layer" id="layer1">
    <ellipse style="fill:#86efac;fill-opacity:0.502;stroke:none;stroke-width:2;stroke-linecap:butt;stroke-linejoin:round;stroke-dasharray:none;stroke-opacity:1" id="path21" cx="512" cy="272" rx="240" ry="400" inkscape:label="GlowOuter" />
    <ellipse style="fill:#86efac;fill-opacity:0.502;stroke:none;stroke-width:2;stroke-linecap:butt;stroke-linejoin:round;stroke-dasharray:none;stroke-opacity:1" id="path20" cx="512" cy="400" rx="176" ry="272" inkscape:label="GlowMiddle" />
    <ellipse style="fill:#86efac;fill-opacity:0.502;stroke:none;stroke-width:2;stroke-linecap:butt;stroke-linejoin:round;stroke-dasharray:none;stroke-opacity:1" id="path19" cx="512" cy="464" rx="112" ry="208" inkscape:label="GlowInner" />
    <rect style="fill:#22c55e;fill-opacity:1;stroke:#000000;stroke-width:2;stroke-linecap:butt;stroke-linejoin:round;stroke-dasharray:none;stroke-opacity:1" id="rect14" width="256" height="32" x="384" y="672" inkscape:label="Base" />
    <path style="fill:#4ade80;fill-opacity:1;stroke:#000000;stroke-width:2;stroke-linecap:butt;stroke-linejoin:round;stroke-dasharray:none;stroke-opacity:1" d="m 400,672 c 0,0 0,-160 0,-192 0,-32 48,-64 112,-64 64,0 112,32 112,64 0,32 0,192 0,192 z" id="path14" sodipodi:nodetypes="czzzcc" inkscape:label="Casing" />
    <path style="fill:#cbd5e1;fill-opacity:1;stroke:#000000;stroke-width:2;stroke-linecap:butt;stroke-linejoin:round;stroke-dasharray:none;stroke-opacity:1" d="m 448,672 v -16 h 96 l -96,-96 v -16 h -16 v 128 z" id="path16" inkscape:label="CathodeTerminal" />
    <path style="fill:#cbd5e1;fill-opacity:1;stroke:#000000;stroke-width:2;stroke-linecap:butt;stroke-linejoin:round;stroke-dasharray:none;stroke-opacity:1" d="M 592,672 V 560 l -16,-16 h -96 v 16 l 96,96 v 16 z" id="path17" sodipodi:nodetypes="cccccccc" inkscape:label="AnodeTerminal" />
    <path style="fill:none;fill-opacity:1;stroke:#000000;stroke-width:2;stroke-linecap:butt;stroke-linejoin:round;stroke-dasharray:none;stroke-opacity:1" d="m 520,544 c 0,-8 -24,-16 -40,-16 -16,0 -40,8 -40,16" id="path18" sodipodi:nodetypes="ccc" inkscape:label="ArcWire" />
    <rect style="fill:#cbd5e1;fill-opacity:1;stroke:#000000;stroke-width:2;stroke-linecap:butt;stroke-linejoin:round;stroke-dasharray:none;stroke-opacity:1" id="rect18" width="16" height="64" x="432" y="704" inkscape:label="Cathode" />
    <rect style="fill:#cbd5e1;fill-opacity:1;stroke:#000000;stroke-width:2;stroke-linecap:butt;stroke-linejoin:round;stroke-dasharray:none;stroke-opacity:1" id="rect19" width="16" height="64" x="576" y="704" inkscape:label="Anode" />
    <ellipse style="fill:#86efac;fill-opacity:0.502;stroke:none;stroke-width:2;stroke-linecap:butt;stroke-linejoin:round;stroke-dasharray:none;stroke-opacity:1" id="path22" cx="512" cy="488" rx="112" ry="64" inkscape:label="LowerHighlight" />
    <ellipse style="fill:#86efac;fill-opacity:0.502;stroke:none;stroke-width:2;stroke-linecap:butt;stroke-linejoin:round;stroke-dasharray:none;stroke-opacity:1" id="path23" cx="512" cy="472" rx="112" ry="48" inkscape:label="MiddleHighlight" />
    <ellipse style="fill:#f0fdf4;fill-opacity:0.502;stroke:none;stroke-width:2.44949;stroke-linecap:butt;stroke-linejoin:round;stroke-dasharray:none;stroke-opacity:1" id="path24" cx="480" cy="464" rx="48" ry="32" inkscape:label="SpecularHighlight" />
  </g>
  <g inkscape:groupmode="layer" id="layer2" inkscape:label="Book" style="display:inline">
    <path style="fill:#f5f5f5;fill-opacity:1;stroke:#000000;stroke-width:2;stroke-linecap:butt;stroke-linejoin:round;stroke-dasharray:none;stroke-opacity:1" d="M 512,864 456,832 48,864 v -64 c 0,0 376,-32 408,-32 32,0 56,32 56,32 0,0 32,-32 64,-32 32,0 400,32 400,32 v 64 L 576,832 Z" id="path26" sodipodi:nodetypes="ccccccccccc" inkscape:label="Pages" />
    <path style="fill:#3b82f6;fill-opacity:1;stroke:#000000;stroke-width:2;stroke-linecap:butt;stroke-linejoin:round;stroke-dasharray:none;stroke-opacity:1" d="m 32,880 416,-32 c 0,0 -32,8 -32,24 8,8 184,8 192,0 0,-16 -32,-24 -32,-24 l 416,32 v -16 c 0,0 -384,-32 -416,-32 -32,0 -64,32 -64,32 0,0 -32,-32 -64,-32 -32,0 -416,32 -416,32 z" id="path25" sodipodi:nodetypes="cccccccccccc" inkscape:label="Cover" />
    <path style="fill:#f5f5f5;fill-opacity:1;stroke:#000000;stroke-width:4;stroke-linecap:butt;stroke-linejoin:round;stroke-dasharray:none;stroke-opacity:1" d="M 960,816 576,784" id="path27" inkscape:label="PageLine-6" />
    <path style="fill:#f5f5f5;fill-opacity:1;stroke:#000000;stroke-width:4;stroke-linecap:butt;stroke-linejoin:round;stroke-dasharray:none;stroke-opacity:1" d="M 960,832 576,800" id="path28" inkscape:label="PageLine-5" />
    <path style="fill:#f5f5f5;fill-opacity:1;stroke:#000000;stroke-width:4;stroke-linecap:butt;stroke-linejoin:round;stroke-dasharray:none;stroke-opacity:1" d="M 960,848 576,816" id="path29" inkscape:label="PageLine-4" />
    <path style="fill:#f5f5f5;fill-opacity:1;stroke:#000000;stroke-width:4;stroke-linecap:butt;stroke-linejoin:round;stroke-dasharray:none;stroke-opacity:1" d="M 64,816 448,784" id="path30" inkscape:label="PageLine-3" />
    <path style="fill:#f5f5f5;fill-opacity:1;stroke:#000000;stroke-width:4;stroke-linecap:butt;stroke-linejoin:round;stroke-dasharray:none;stroke-opacity:1" d="M 64,832 448,800" id="path31" inkscape:label="PageLine-2" />
    <path style="fill:#f5f5f5;fill-opacity:1;stroke:#000000;stroke-width:4;stroke-linecap:butt;stroke-linejoin:round;stroke-dasharray:none;stroke-opacity:1" d="M 64,848 448,816" id="path32" inkscape:label="PageLine-1" />
    <path style="fill:#f5f5f5;fill-opacity:1;stroke:#000000;stroke-width:2;stroke-linecap:butt;stroke-linejoin:round;stroke-dasharray:none;stroke-opacity:1" d="m 512,800 v 64" id="path33" inkscape:label="Crease" />
    <path style="fill:none;fill-opacity:1;stroke:#ffffff;stroke-width:8;stroke-linecap:butt;stroke-linejoin:round;stroke-dasharray:none;stroke-opacity:0.5" d="m 512,800 c 0,0 32,-48 64,-48 32,0 400,40 400,40" id="path34" sodipodi:nodetypes="ccc" inkscape:label="Page-4s" />
    <path style="fill:none;fill-opacity:1;stroke:#ffffff;stroke-width:8;stroke-linecap:butt;stroke-linejoin:round;stroke-dasharray:none;stroke-opacity:0.5" d="m 512,800 c 0,0 24,-64 72,-64 48,0 376,40 376,40" id="path35-1" sodipodi:nodetypes="ccc" inkscape:label="Page-3s" />
    <path style="fill:none;fill-opacity:1;stroke:#ffffff;stroke-width:8;stroke-linecap:butt;stroke-linejoin:round;stroke-dasharray:none;stroke-opacity:0.5" d="m 512,800 c 0,0 -32,-48 -64,-48 -32,0 -400,40 -400,40" id="path34-3" sodipodi:nodetypes="ccc" inkscape:label="Page-2s" />
    <path style="fill:none;fill-opacity:1;stroke:#ffffff;stroke-width:8;stroke-linecap:butt;stroke-linejoin:round;stroke-dasharray:none;stroke-opacity:0.5" d="m 512,800 c 0,0 -24,-64 -72,-64 -48,0 -376,40 -376,40" id="path35" sodipodi:nodetypes="ccc" inkscape:label="Page-1s" />
    <path style="fill:none;fill-opacity:1;stroke:#000000;stroke-width:4;stroke-linecap:butt;stroke-linejoin:round;stroke-dasharray:none;stroke-opacity:1" d="m 512,800 c 0,0 32,-48 64,-48 32,0 400,40 400,40" id="path5" sodipodi:nodetypes="ccc" inkscape:label="Page-4" />
    <path style="fill:none;fill-opacity:1;stroke:#000000;stroke-width:4;stroke-linecap:butt;stroke-linejoin:round;stroke-dasharray:none;stroke-opacity:1" d="m 512,800 c 0,0 24,-64 72,-64 48,0 376,40 376,40" id="path6" sodipodi:nodetypes="ccc" inkscape:label="Page-3" />
    <path style="fill:none;fill-opacity:1;stroke:#000000;stroke-width:4;stroke-linecap:butt;stroke-linejoin:round;stroke-dasharray:none;stroke-opacity:1" d="m 512,800 c 0,0 -32,-48 -64,-48 -32,0 -400,40 -400,40" id="path7" sodipodi:nodetypes="ccc" inkscape:label="Page-2" />
    <path style="fill:none;fill-opacity:1;stroke:#000000;stroke-width:4;stroke-linecap:butt;stroke-linejoin:round;stroke-dasharray:none;stroke-opacity:1" d="m 512,800 c 0,0 -24,-64 -72,-64 -48,0 -376,40 -376,40" id="path8" sodipodi:nodetypes="ccc" inkscape:label="Page-1" />
  </g>
  <metadata id="metadata5">
    <rdf:RDF>
      <cc:Work rdf:about="">
        <dc:title>Shisō no Senshi icon</dc:title>
        <dc:date>2025-06</dc:date>
        <dc:creator>
          <cc:Agent>
            <dc:title>JEleniel (http://github.com/JEleniel) &lt;jeleniel@crystultima.org)</dc:title>
          </cc:Agent>
        </dc:creator>
        <dc:rights>
          <cc:Agent>
            <dc:title>Shisō no Senshi icon © 2025 by JEleniel is licensed under CC BY-NC-SA 4.0. To view a copy of this license, visit https://creativecommons.org/licenses/by-nc-sa/4.0/ </dc:title>
          </cc:Agent>
        </dc:rights>
        <cc:license rdf:resource="http://creativecommons.org/licenses/by-nc-sa/4.0/" />
      </cc:Work>
      <cc:License rdf:about="http://creativecommons.org/licenses/by-nc-sa/4.0/">
        <cc:permits rdf:resource="http://creativecommons.org/ns#Reproduction" />
        <cc:permits rdf:resource="http://creativecommons.org/ns#Distribution" />
        <cc:requires rdf:resource="http://creativecommons.org/ns#Notice" />
        <cc:requires rdf:resource="http://creativecommons.org/ns#Attribution" />
        <cc:prohibits rdf:resource="http://creativecommons.org/ns#CommercialUse" />
        <cc:permits rdf:resource="http://creativecommons.org/ns#DerivativeWorks" />
        <cc:requires rdf:resource="http://creativecommons.org/ns#ShareAlike" />
      </cc:License>
    </rdf:RDF>
  </metadata>
</svg>
